# File created by Blade
# Date/Time:  Wed Sep 24 19:10:19 2014
# Frame Rate: 120.000 fps
#------------------------------------------------------
:FULLY-SPECIFIED
:DEGREES
4202
root -8.679946 32.870602 -3.166645 45.257802 34.213392 10.431972
Spine -27.317972 1.479197 13.903025
Head -8.706307 10.693382 -0.728666
LeftShoulder -7.031725 19.911710 12.278232
LeftArm 15.648429 -19.242243 -84.003315
LeftForeArm -4.018713 0.000000 109.281902
LeftHand -32.269782 -0.000000 42.940921
LeftHandThumb1 -26.253704 0.000000 33.147579
RightShoulder -20.671344 4.101175 -22.445229
RightArm -22.619281 -12.127501 58.205288
RightForeArm -21.702027 -0.000000 29.937469
RightHand -4.046934 -0.000000 12.420731
RightHandThumb1 -24.326973 -0.000000 -32.862282
LeftUpLeg -46.041052 56.873591 7.480252
LeftLeg 110.368918 -0.000000 -0.000000
LeftFoot 34.449994 19.122155 -24.485174
LeftToeBase 9.411730 -0.000000 -0.000000
RightUpLeg -46.311575 -14.520254 12.174355
RightLeg 15.965708 -0.000000 -0.000000
RightFoot -13.638930 -29.147120 -5.946886
RightToeBase -3.031111 -0.000000 0.000000
4203
root -8.714349 32.849910 -3.114391 44.953348 34.371377 10.077220
Spine -27.327514 1.678631 13.718128
Head -8.663372 10.433903 -0.091259
LeftShoulder -7.116661 20.048461 12.479076
LeftArm 15.681356 -19.204146 -83.857757
LeftForeArm -4.067179 -0.000000 108.974434
LeftHand -32.358597 -0.000000 43.131691
LeftHandThumb1 -26.253704 0.000000 33.147579
RightShoulder -20.797320 4.172137 -22.281654
RightArm -22.950039 -12.118153 58.489739
RightForeArm -21.910694 -0.000000 29.936388
RightHand -4.034296 -0.000000 12.367833
RightHandThumb1 -24.326973 -0.000000 -32.862282
LeftUpLeg -43.440100 56.189345 10.138406
LeftLeg 110.267852 -0.000000 -0.000000
LeftFoot 34.438579 19.200639 -24.244117
LeftToeBase 8.834492 -0.000000 -0.000000
RightUpLeg -46.068773 -14.360713 12.478995
RightLeg 15.913884 -0.000000 -0.000000
RightFoot -13.683713 -29.104511 -5.953518
RightToeBase -3.135800 -0.000000 0.000000
4204
root -8.742010 32.833151 -3.073624 44.718849 34.398309 9.763135
Spine -27.350759 1.920959 13.443663
Head -8.677793 10.206990 0.471854
LeftShoulder -7.053645 19.778693 12.739625
LeftArm 15.122057 -19.326935 -83.535288
LeftForeArm -4.354958 0.000000 108.833484
LeftHand -32.361823 -0.000000 43.420741
LeftHandThumb1 -26.253704 0.000000 33.147579
RightShoulder -20.942194 4.206999 -22.158775
RightArm -23.161696 -12.074497 58.826224
RightForeArm -22.203011 -0.000000 29.965194
RightHand -3.967862 -0.000000 12.048443
RightHandThumb1 -24.326973 -0.000000 -32.862282
LeftUpLeg -40.969884 55.420582 12.550233
LeftLeg 110.072820 -0.000000 -0.000000
LeftFoot 34.314119 19.380241 -24.223760
LeftToeBase 8.671981 -0.000000 -0.000000
RightUpLeg -45.913970 -14.249007 12.752546
RightLeg 15.880757 -0.000000 -0.000000
RightFoot -13.788803 -28.880589 -5.912787
RightToeBase -3.110456 -0.000000 0.000000
4205
root -8.766360 32.819219 -3.038046 44.529296 34.267487 9.452427
Spine -27.387826 2.161162 13.099543
Head -8.758651 10.069202 0.964232
LeftShoulder -7.232939 19.914665 12.870325
LeftArm 15.057218 -19.438546 -83.360714
LeftForeArm -4.450921 -0.000000 108.610456
LeftHand -32.519352 -0.000000 43.783220
LeftHandThumb1 -26.253704 0.000000 33.147579
RightShoulder -21.033354 4.246387 -22.067456
RightArm -23.230498 -11.975153 59.200782
RightForeArm -22.337623 -0.000000 30.006320
RightHand -3.973129 -0.000000 11.987251
RightHandThumb1 -24.326973 -0.000000 -32.862282
LeftUpLeg -38.618173 54.670495 14.658078
LeftLeg 109.727835 -0.000000 -0.000000
LeftFoot 34.307406 19.665715 -24.001080
LeftToeBase 8.229252 -0.000000 -0.000000
RightUpLeg -45.825605 -14.144092 13.014433
RightLeg 15.846528 -0.000000 -0.000000
RightFoot -13.837257 -28.540017 -5.999531
RightToeBase -3.208658 -0.000000 0.000000
4206
root -8.786163 32.805439 -3.003114 44.305871 34.050153 9.117353
Spine -27.366128 2.426954 12.746578
Head -8.925474 9.983324 1.397794
LeftShoulder -7.477054 20.386590 12.940093
LeftArm 15.319659 -19.639954 -83.384012
LeftForeArm -4.747422 -0.000000 108.441576
LeftHand -32.380436 -0.000000 43.660450
LeftHandThumb1 -26.253704 0.000000 33.147579
RightShoulder -21.086700 4.371217 -21.977152
RightArm -23.321544 -11.862991 59.556992
RightForeArm -22.425540 -0.000000 30.132143
RightHand -4.034268 -0.000000 12.205085
RightHandThumb1 -24.326973 -0.000000 -32.862282
LeftUpLeg -36.242984 53.908109 16.639671
LeftLeg 109.266312 -0.000000 -0.000000
LeftFoot 34.147364 20.167748 -23.990240
LeftToeBase 7.803387 -0.000000 -0.000000
RightUpLeg -45.691181 -14.035853 13.270007
RightLeg 15.761763 -0.000000 -0.000000
RightFoot -13.884051 -28.180891 -6.063291
RightToeBase -3.332896 -0.000000 0.000000
4207
root -8.801823 32.794144 -2.976905 44.134858 33.758972 8.813152
Spine -27.339359 2.665389 12.382442
Head -9.175227 9.891928 1.661661
LeftShoulder -7.589597 20.499275 13.018950
LeftArm 15.053345 -19.959630 -83.235584
LeftForeArm -4.684753 -0.000000 108.503854
LeftHand -32.625140 0.000000 43.806157
LeftHandThumb1 -26.253704 0.000000 33.147579
RightShoulder -21.097705 4.542409 -21.942079
RightArm -23.351870 -11.860601 59.997222
RightForeArm -22.461431 0.000000 30.201171
RightHand -3.934031 0.000000 11.918604
RightHandThumb1 -24.326973 -0.000000 -32.862282
LeftUpLeg -34.106012 53.173914 18.258254
LeftLeg 108.756403 -0.000000 -0.000000
LeftFoot 33.860597 20.487652 -23.597087
LeftToeBase 7.938163 -0.000000 -0.000000
RightUpLeg -45.597047 -13.937176 13.511344
RightLeg 15.636914 -0.000000 -0.000000
RightFoot -13.922195 -27.814261 -6.070693
RightToeBase -3.511529 -0.000000 0.000000
4208
root -8.810166 32.785149 -2.964858 44.024494 33.398258 8.568330
Spine -27.295897 2.894117 11.995662
Head -9.489860 9.901648 1.856255
LeftShoulder -7.734151 20.747506 13.016832
LeftArm 14.951979 -20.355309 -83.175490
LeftForeArm -5.054704 -0.000000 108.610448
LeftHand -32.480260 -0.000000 44.027551
LeftHandThumb1 -26.253704 0.000000 33.147579
RightShoulder -21.077595 4.682072 -21.933691
RightArm -23.266764 -11.751445 60.402484
RightForeArm -22.469666 -0.000000 30.333934
RightHand -4.002428 -0.000000 11.572381
RightHandThumb1 -24.326973 -0.000000 -32.862282
LeftUpLeg -32.068833 52.338631 19.691726
LeftLeg 108.192378 -0.000000 -0.000000
LeftFoot 33.858656 20.515811 -23.688631
LeftToeBase 7.805494 -0.000000 -0.000000
RightUpLeg -45.582647 -13.896326 13.718938
RightLeg 15.549797 -0.000000 -0.000000
RightFoot -13.935232 -27.406858 -6.227510
RightToeBase -3.581570 -0.000000 0.000000
4209
root -8.821115 32.776727 -2.955921 43.945364 33.038451 8.290799
Spine -27.298972 3.127973 11.687897
Head -9.837240 9.902349 1.902529
LeftShoulder -7.807091 20.975794 13.012382
LeftArm 14.734446 -20.867709 -83.141394
LeftForeArm -5.280287 -0.000000 108.803123
LeftHand -32.373233 -0.000000 43.880173
LeftHandThumb1 -26.253704 0.000000 33.147579
RightShoulder -21.013688 4.786660 -21.984493
RightArm -23.108842 -11.611209 60.839278
RightForeArm -22.471247 -0.000000 30.447625
RightHand -3.915822 -0.000000 11.493487
RightHandThumb1 -24.326973 -0.000000 -32.862282
LeftUpLeg -30.288830 51.511215 20.904481
LeftLeg 107.614638 -0.000000 -0.000000
LeftFoot 33.751542 20.598403 -23.824199
LeftToeBase 8.618509 -0.000000 -0.000000
RightUpLeg -45.618719 -13.877866 14.004862
RightLeg 15.439402 -0.000000 -0.000000
RightFoot -13.960887 -26.901686 -6.328621
RightToeBase -3.691798 -0.000000 0.000000
4210
root -8.830234 32.769416 -2.951434 43.902367 32.700661 8.061663
Spine -27.277178 3.315711 11.404227
Head -10.218818 9.998050 1.860688
LeftShoulder -7.891218 21.097326 12.961354
LeftArm 14.447497 -21.409996 -83.089747
LeftForeArm -5.648224 -0.000000 109.079293
LeftHand -32.187470 0.000000 43.616408
LeftHandThumb1 -26.253704 0.000000 33.147579
RightShoulder -20.933784 4.924850 -22.007134
RightArm -22.934939 -11.583821 61.224971
RightForeArm -22.357662 -0.000000 30.619570
RightHand -3.821817 -0.000000 11.470904
RightHandThumb1 -24.326973 -0.000000 -32.862282
LeftUpLeg -28.740489 50.653287 21.834921
LeftLeg 107.004698 -0.000000 -0.000000
LeftFoot 33.749671 20.702096 -23.901823
LeftToeBase 8.765389 -0.000000 -0.000000
RightUpLeg -45.677955 -13.912350 14.294981
RightLeg 15.327386 -0.000000 -0.000000
RightFoot -13.996142 -26.429577 -6.414902
RightToeBase -3.747501 -0.000000 0.000000
4211
root -8.840111 32.763327 -2.944554 43.865949 32.353881 7.834427
Spine -27.283753 3.519566 11.123246
Head -10.553016 10.068141 1.777580
LeftShoulder -7.973677 21.361926 12.883084
LeftArm 14.375874 -21.923540 -83.143920
LeftForeArm -5.838653 -0.000000 109.356937
LeftHand -32.062344 -0.000000 43.369375
LeftHandThumb1 -26.253704 0.000000 33.147579
RightShoulder -20.829092 5.010915 -22.032768
RightArm -22.740921 -11.516518 61.615019
RightForeArm -22.321652 -0.000000 30.859269
RightHand -3.792000 -0.000000 11.554963
RightHandThumb1 -24.326973 -0.000000 -32.862282
LeftUpLeg -27.210510 49.884805 22.707195
LeftLeg 106.353902 -0.000000 -0.000000
LeftFoot 33.358491 21.083960 -24.486184
LeftToeBase 9.108257 -0.000000 -0.000000
RightUpLeg -45.716370 -13.959773 14.603883
RightLeg 15.158945 -0.000000 -0.000000
RightFoot -13.972321 -25.967790 -6.584005
RightToeBase -3.837281 -0.000000 0.000000
